<?xml version="1.0" encoding="UTF-8" standalone="no"?>
<!DOCTYPE svg PUBLIC "-//W3C//DTD SVG 1.1//EN"
 "http://www.w3.org/Graphics/SVG/1.1/DTD/svg11.dtd">
<!-- Generated by graphviz version 2.43.0 (0)
 -->
<!-- Title: isValidItemDetails Pages: 1 -->
<svg width="411pt" height="66pt"
 viewBox="0.00 0.00 411.00 66.00" xmlns="http://www.w3.org/2000/svg" xmlns:xlink="http://www.w3.org/1999/xlink">
<g id="graph0" class="graph" transform="scale(1 1) rotate(0) translate(4 62)">
<title>isValidItemDetails</title>
<!-- Node1 -->
<g id="node1" class="node">
<title>Node1</title>
<g id="a_node1"><a xlink:title="This function checks if an itemDetail srtuct is valid.">
<polygon fill="#bfbfbf" stroke="black" points="297,-19.5 297,-38.5 403,-38.5 403,-19.5 297,-19.5"/>
<text text-anchor="middle" x="350" y="-26.5" font-family="Helvetica,sans-Serif" font-size="10.00">isValidItemDetails</text>
</a>
</g>
</g>
<!-- Node2 -->
<g id="node2" class="node">
<title>Node2</title>
<g id="a_node2"><a xlink:href="p__and__p_8c.html#ad7ff273f3ae7b323a2325e57bc55165f" target="_top" xlink:title="This function reads ItemDetails from a file descriptor, validates the data and stores it in the provi...">
<polygon fill="none" stroke="black" points="165,-38.5 165,-57.5 260,-57.5 260,-38.5 165,-38.5"/>
<text text-anchor="middle" x="212.5" y="-45.5" font-family="Helvetica,sans-Serif" font-size="10.00">loadItemDetails</text>
</a>
</g>
</g>
<!-- Node1&#45;&gt;Node2 -->
<g id="edge1" class="edge">
<title>Node1&#45;&gt;Node2</title>
<path fill="none" stroke="midnightblue" d="M286.96,-37.7C277.98,-38.96 268.87,-40.24 260.26,-41.44"/>
<polygon fill="midnightblue" stroke="midnightblue" points="287.58,-41.15 297,-36.29 286.61,-34.21 287.58,-41.15"/>
</g>
<!-- Node4 -->
<g id="node4" class="node">
<title>Node4</title>
<g id="a_node4"><a xlink:href="p__and__p_8c.html#ab91715820c37e4a405f797137044a417" target="_top" xlink:title="A function that validates the data, opens the incomming file descriptor for writing and writes the da...">
<polygon fill="none" stroke="black" points="164,-0.5 164,-19.5 261,-19.5 261,-0.5 164,-0.5"/>
<text text-anchor="middle" x="212.5" y="-7.5" font-family="Helvetica,sans-Serif" font-size="10.00">saveItemDetails</text>
</a>
</g>
</g>
<!-- Node1&#45;&gt;Node4 -->
<g id="edge3" class="edge">
<title>Node1&#45;&gt;Node4</title>
<path fill="none" stroke="midnightblue" d="M286.92,-20.3C278.26,-19.08 269.48,-17.85 261.14,-16.68"/>
<polygon fill="midnightblue" stroke="midnightblue" points="286.61,-23.79 297,-21.71 287.58,-16.85 286.61,-23.79"/>
</g>
<!-- Node3 -->
<g id="node3" class="node">
<title>Node3</title>
<g id="a_node3"><a xlink:href="p__and__p_8c.html#a296f75eb03e00e12cf915c62b664c075" target="_top" xlink:title="This function attempt to acquire appropriate permissions for opening the ItemDetails database and loa...">
<polygon fill="none" stroke="black" points="28,-38.5 28,-57.5 100,-57.5 100,-38.5 28,-38.5"/>
<text text-anchor="middle" x="64" y="-45.5" font-family="Helvetica,sans-Serif" font-size="10.00">secureLoad</text>
</a>
</g>
</g>
<!-- Node2&#45;&gt;Node3 -->
<g id="edge2" class="edge">
<title>Node2&#45;&gt;Node3</title>
<path fill="none" stroke="midnightblue" d="M154.72,-48C136.34,-48 116.51,-48 100.18,-48"/>
<polygon fill="midnightblue" stroke="midnightblue" points="154.74,-51.5 164.74,-48 154.74,-44.5 154.74,-51.5"/>
</g>
<!-- Node5 -->
<g id="node5" class="node">
<title>Node5</title>
<g id="a_node5"><a xlink:href="p__and__p_8c.html#aeac7455bb8cad9f22589c724d142d674" target="_top" xlink:title="For Testing purposes only.">
<polygon fill="none" stroke="black" points="0,-0.5 0,-19.5 128,-19.5 128,-0.5 0,-0.5"/>
<text text-anchor="middle" x="64" y="-7.5" font-family="Helvetica,sans-Serif" font-size="10.00">saveItemDetailsToPath</text>
</a>
</g>
</g>
<!-- Node4&#45;&gt;Node5 -->
<g id="edge4" class="edge">
<title>Node4&#45;&gt;Node5</title>
<path fill="none" stroke="midnightblue" d="M153.8,-10C145.35,-10 136.61,-10 128.06,-10"/>
<polygon fill="midnightblue" stroke="midnightblue" points="153.94,-13.5 163.94,-10 153.94,-6.5 153.94,-13.5"/>
</g>
</g>
</svg>
