<?xml version="1.0" encoding="UTF-8" standalone="no"?>
<!DOCTYPE svg PUBLIC "-//W3C//DTD SVG 1.1//EN"
 "http://www.w3.org/Graphics/SVG/1.1/DTD/svg11.dtd">
<!-- Generated by graphviz version 2.43.0 (0)
 -->
<!-- Title: isValidCharacter Pages: 1 -->
<svg width="232pt" height="66pt"
 viewBox="0.00 0.00 232.00 66.00" xmlns="http://www.w3.org/2000/svg" xmlns:xlink="http://www.w3.org/1999/xlink">
<g id="graph0" class="graph" transform="scale(1 1) rotate(0) translate(4 62)">
<title>isValidCharacter</title>
<!-- Node1 -->
<g id="node1" class="node">
<title>Node1</title>
<g id="a_node1"><a xlink:title="This function checks whether a Character struct is valid It is valid iff all of its fields are valid ...">
<polygon fill="#bfbfbf" stroke="black" points="128,-19.5 128,-38.5 224,-38.5 224,-19.5 128,-19.5"/>
<text text-anchor="middle" x="176" y="-26.5" font-family="Helvetica,sans-Serif" font-size="10.00">isValidCharacter</text>
</a>
</g>
</g>
<!-- Node2 -->
<g id="node2" class="node">
<title>Node2</title>
<g id="a_node2"><a xlink:href="p__and__p_8c.html#a77ba374e7f225849324a43bb1cc25340" target="_top" xlink:title="This function reads Character from a file descriptor, validates the data and stores it in the incommi...">
<polygon fill="none" stroke="black" points="1,-38.5 1,-57.5 91,-57.5 91,-38.5 1,-38.5"/>
<text text-anchor="middle" x="46" y="-45.5" font-family="Helvetica,sans-Serif" font-size="10.00">loadCharacters</text>
</a>
</g>
</g>
<!-- Node1&#45;&gt;Node2 -->
<g id="edge1" class="edge">
<title>Node1&#45;&gt;Node2</title>
<path fill="none" stroke="midnightblue" d="M117.74,-37.5C108.81,-38.82 99.71,-40.18 91.13,-41.45"/>
<polygon fill="midnightblue" stroke="midnightblue" points="118.32,-40.95 127.7,-36.02 117.3,-34.03 118.32,-40.95"/>
</g>
<!-- Node3 -->
<g id="node3" class="node">
<title>Node3</title>
<g id="a_node3"><a xlink:href="p__and__p_8c.html#ab79b1f170a60ef74d15baec28e4f11a8" target="_top" xlink:title="This function validates the data, opens a file descriptor for writing, and writes the data to the fil...">
<polygon fill="none" stroke="black" points="0,-0.5 0,-19.5 92,-19.5 92,-0.5 0,-0.5"/>
<text text-anchor="middle" x="46" y="-7.5" font-family="Helvetica,sans-Serif" font-size="10.00">saveCharacters</text>
</a>
</g>
</g>
<!-- Node1&#45;&gt;Node3 -->
<g id="edge2" class="edge">
<title>Node1&#45;&gt;Node3</title>
<path fill="none" stroke="midnightblue" d="M117.54,-20.47C109.12,-19.22 100.54,-17.95 92.4,-16.74"/>
<polygon fill="midnightblue" stroke="midnightblue" points="117.3,-23.97 127.7,-21.98 118.32,-17.05 117.3,-23.97"/>
</g>
</g>
</svg>
