<?xml version="1.0" encoding="UTF-8" standalone="no"?>
<!DOCTYPE svg PUBLIC "-//W3C//DTD SVG 1.1//EN"
 "http://www.w3.org/Graphics/SVG/1.1/DTD/svg11.dtd">
<!-- Generated by graphviz version 2.43.0 (0)
 -->
<!-- Title: isValidMultiword Pages: 1 -->
<svg width="545pt" height="142pt"
 viewBox="0.00 0.00 545.00 142.00" xmlns="http://www.w3.org/2000/svg" xmlns:xlink="http://www.w3.org/1999/xlink">
<g id="graph0" class="graph" transform="scale(1 1) rotate(0) translate(4 138)">
<title>isValidMultiword</title>
<!-- Node1 -->
<g id="node1" class="node">
<title>Node1</title>
<g id="a_node1"><a xlink:title="This function checks if a string is a valid multiword.">
<polygon fill="#bfbfbf" stroke="black" points="439,-57.5 439,-76.5 537,-76.5 537,-57.5 439,-57.5"/>
<text text-anchor="middle" x="488" y="-64.5" font-family="Helvetica,sans-Serif" font-size="10.00">isValidMultiword</text>
</a>
</g>
</g>
<!-- Node2 -->
<g id="node2" class="node">
<title>Node2</title>
<g id="a_node2"><a xlink:href="p__and__p_8c.html#aec06dfc8a90dfe2c5a0c7d56f727ae21" target="_top" xlink:title="This function checks whether a Character struct is valid It is valid iff all of its fields are valid ...">
<polygon fill="none" stroke="black" points="302,-76.5 302,-95.5 398,-95.5 398,-76.5 302,-76.5"/>
<text text-anchor="middle" x="350" y="-83.5" font-family="Helvetica,sans-Serif" font-size="10.00">isValidCharacter</text>
</a>
</g>
</g>
<!-- Node1&#45;&gt;Node2 -->
<g id="edge1" class="edge">
<title>Node1&#45;&gt;Node2</title>
<path fill="none" stroke="midnightblue" d="M428.65,-75.15C418.51,-76.57 408.07,-78.03 398.26,-79.4"/>
<polygon fill="midnightblue" stroke="midnightblue" points="429.25,-78.6 438.67,-73.75 428.28,-71.67 429.25,-78.6"/>
</g>
<!-- Node5 -->
<g id="node5" class="node">
<title>Node5</title>
<g id="a_node5"><a xlink:href="p__and__p_8c.html#a016e2cb079f819b59593d79aeed8b024" target="_top" xlink:title="This function checks if an itemDetail srtuct is valid.">
<polygon fill="none" stroke="black" points="297,-38.5 297,-57.5 403,-57.5 403,-38.5 297,-38.5"/>
<text text-anchor="middle" x="350" y="-45.5" font-family="Helvetica,sans-Serif" font-size="10.00">isValidItemDetails</text>
</a>
</g>
</g>
<!-- Node1&#45;&gt;Node5 -->
<g id="edge4" class="edge">
<title>Node1&#45;&gt;Node5</title>
<path fill="none" stroke="midnightblue" d="M428.57,-58.84C420.18,-57.66 411.59,-56.46 403.33,-55.31"/>
<polygon fill="midnightblue" stroke="midnightblue" points="428.28,-62.33 438.67,-60.25 429.25,-55.4 428.28,-62.33"/>
</g>
<!-- Node3 -->
<g id="node3" class="node">
<title>Node3</title>
<g id="a_node3"><a xlink:href="p__and__p_8c.html#a77ba374e7f225849324a43bb1cc25340" target="_top" xlink:title="This function reads Character from a file descriptor, validates the data and stores it in the incommi...">
<polygon fill="none" stroke="black" points="167.5,-114.5 167.5,-133.5 257.5,-133.5 257.5,-114.5 167.5,-114.5"/>
<text text-anchor="middle" x="212.5" y="-121.5" font-family="Helvetica,sans-Serif" font-size="10.00">loadCharacters</text>
</a>
</g>
</g>
<!-- Node2&#45;&gt;Node3 -->
<g id="edge2" class="edge">
<title>Node2&#45;&gt;Node3</title>
<path fill="none" stroke="midnightblue" d="M305.08,-98.32C286.46,-103.54 265.09,-109.53 247.68,-114.41"/>
<polygon fill="midnightblue" stroke="midnightblue" points="306.12,-101.66 314.81,-95.59 304.23,-94.92 306.12,-101.66"/>
</g>
<!-- Node4 -->
<g id="node4" class="node">
<title>Node4</title>
<g id="a_node4"><a xlink:href="p__and__p_8c.html#ab79b1f170a60ef74d15baec28e4f11a8" target="_top" xlink:title="This function validates the data, opens a file descriptor for writing, and writes the data to the fil...">
<polygon fill="none" stroke="black" points="166.5,-76.5 166.5,-95.5 258.5,-95.5 258.5,-76.5 166.5,-76.5"/>
<text text-anchor="middle" x="212.5" y="-83.5" font-family="Helvetica,sans-Serif" font-size="10.00">saveCharacters</text>
</a>
</g>
</g>
<!-- Node2&#45;&gt;Node4 -->
<g id="edge3" class="edge">
<title>Node2&#45;&gt;Node4</title>
<path fill="none" stroke="midnightblue" d="M291.92,-86C280.79,-86 269.27,-86 258.6,-86"/>
<polygon fill="midnightblue" stroke="midnightblue" points="291.99,-89.5 301.99,-86 291.99,-82.5 291.99,-89.5"/>
</g>
<!-- Node6 -->
<g id="node6" class="node">
<title>Node6</title>
<g id="a_node6"><a xlink:href="p__and__p_8c.html#ad7ff273f3ae7b323a2325e57bc55165f" target="_top" xlink:title="This function reads ItemDetails from a file descriptor, validates the data and stores it in the provi...">
<polygon fill="none" stroke="black" points="165,-38.5 165,-57.5 260,-57.5 260,-38.5 165,-38.5"/>
<text text-anchor="middle" x="212.5" y="-45.5" font-family="Helvetica,sans-Serif" font-size="10.00">loadItemDetails</text>
</a>
</g>
</g>
<!-- Node5&#45;&gt;Node6 -->
<g id="edge5" class="edge">
<title>Node5&#45;&gt;Node6</title>
<path fill="none" stroke="midnightblue" d="M286.96,-48C277.98,-48 268.87,-48 260.26,-48"/>
<polygon fill="midnightblue" stroke="midnightblue" points="287,-51.5 297,-48 287,-44.5 287,-51.5"/>
</g>
<!-- Node8 -->
<g id="node8" class="node">
<title>Node8</title>
<g id="a_node8"><a xlink:href="p__and__p_8c.html#ab91715820c37e4a405f797137044a417" target="_top" xlink:title="A function that validates the data, opens the incomming file descriptor for writing and writes the da...">
<polygon fill="none" stroke="black" points="164,-0.5 164,-19.5 261,-19.5 261,-0.5 164,-0.5"/>
<text text-anchor="middle" x="212.5" y="-7.5" font-family="Helvetica,sans-Serif" font-size="10.00">saveItemDetails</text>
</a>
</g>
</g>
<!-- Node5&#45;&gt;Node8 -->
<g id="edge7" class="edge">
<title>Node5&#45;&gt;Node8</title>
<path fill="none" stroke="midnightblue" d="M305.08,-35.68C286.46,-30.46 265.09,-24.47 247.68,-19.59"/>
<polygon fill="midnightblue" stroke="midnightblue" points="304.23,-39.08 314.81,-38.41 306.12,-32.34 304.23,-39.08"/>
</g>
<!-- Node7 -->
<g id="node7" class="node">
<title>Node7</title>
<g id="a_node7"><a xlink:href="p__and__p_8c.html#a296f75eb03e00e12cf915c62b664c075" target="_top" xlink:title="This function attempt to acquire appropriate permissions for opening the ItemDetails database and loa...">
<polygon fill="none" stroke="black" points="28,-38.5 28,-57.5 100,-57.5 100,-38.5 28,-38.5"/>
<text text-anchor="middle" x="64" y="-45.5" font-family="Helvetica,sans-Serif" font-size="10.00">secureLoad</text>
</a>
</g>
</g>
<!-- Node6&#45;&gt;Node7 -->
<g id="edge6" class="edge">
<title>Node6&#45;&gt;Node7</title>
<path fill="none" stroke="midnightblue" d="M154.72,-48C136.34,-48 116.51,-48 100.18,-48"/>
<polygon fill="midnightblue" stroke="midnightblue" points="154.74,-51.5 164.74,-48 154.74,-44.5 154.74,-51.5"/>
</g>
<!-- Node9 -->
<g id="node9" class="node">
<title>Node9</title>
<g id="a_node9"><a xlink:href="p__and__p_8c.html#aeac7455bb8cad9f22589c724d142d674" target="_top" xlink:title="For Testing purposes only.">
<polygon fill="none" stroke="black" points="0,-0.5 0,-19.5 128,-19.5 128,-0.5 0,-0.5"/>
<text text-anchor="middle" x="64" y="-7.5" font-family="Helvetica,sans-Serif" font-size="10.00">saveItemDetailsToPath</text>
</a>
</g>
</g>
<!-- Node8&#45;&gt;Node9 -->
<g id="edge8" class="edge">
<title>Node8&#45;&gt;Node9</title>
<path fill="none" stroke="midnightblue" d="M153.8,-10C145.35,-10 136.61,-10 128.06,-10"/>
<polygon fill="midnightblue" stroke="midnightblue" points="153.94,-13.5 163.94,-10 153.94,-6.5 153.94,-13.5"/>
</g>
</g>
</svg>
