<?xml version="1.0" encoding="UTF-8" standalone="no"?>
<!DOCTYPE svg PUBLIC "-//W3C//DTD SVG 1.1//EN"
 "http://www.w3.org/Graphics/SVG/1.1/DTD/svg11.dtd">
<!-- Generated by graphviz version 2.43.0 (0)
 -->
<!-- Title: isValidCharacter Pages: 1 -->
<svg width="238pt" height="66pt"
 viewBox="0.00 0.00 238.00 66.00" xmlns="http://www.w3.org/2000/svg" xmlns:xlink="http://www.w3.org/1999/xlink">
<g id="graph0" class="graph" transform="scale(1 1) rotate(0) translate(4 62)">
<title>isValidCharacter</title>
<!-- Node1 -->
<g id="node1" class="node">
<title>Node1</title>
<g id="a_node1"><a xlink:title="This function checks whether a Character struct is valid It is valid iff all of its fields are valid ...">
<polygon fill="#bfbfbf" stroke="black" points="0,-19.5 0,-38.5 96,-38.5 96,-19.5 0,-19.5"/>
<text text-anchor="middle" x="48" y="-26.5" font-family="Helvetica,sans-Serif" font-size="10.00">isValidCharacter</text>
</a>
</g>
</g>
<!-- Node2 -->
<g id="node2" class="node">
<title>Node2</title>
<g id="a_node2"><a xlink:href="p__and__p_8c.html#a95b67b25c7e9f090f0a684d8c1660d20" target="_top" xlink:title="This function checks if a string is a valid multiword.">
<polygon fill="none" stroke="black" points="132,-38.5 132,-57.5 230,-57.5 230,-38.5 132,-38.5"/>
<text text-anchor="middle" x="181" y="-45.5" font-family="Helvetica,sans-Serif" font-size="10.00">isValidMultiword</text>
</a>
</g>
</g>
<!-- Node1&#45;&gt;Node2 -->
<g id="edge1" class="edge">
<title>Node1&#45;&gt;Node2</title>
<path fill="none" stroke="midnightblue" d="M96.29,-35.86C104.62,-37.07 113.37,-38.34 121.94,-39.58"/>
<polygon fill="midnightblue" stroke="midnightblue" points="121.5,-43.05 131.89,-41.02 122.5,-36.12 121.5,-43.05"/>
</g>
<!-- Node3 -->
<g id="node3" class="node">
<title>Node3</title>
<g id="a_node3"><a xlink:href="p__and__p_8c.html#abadf6a620876f0fd2a396c1dc922eba3" target="_top" xlink:title="This function checks if a string is a valid name.">
<polygon fill="none" stroke="black" points="142,-0.5 142,-19.5 220,-19.5 220,-0.5 142,-0.5"/>
<text text-anchor="middle" x="181" y="-7.5" font-family="Helvetica,sans-Serif" font-size="10.00">isValidName</text>
</a>
</g>
</g>
<!-- Node1&#45;&gt;Node3 -->
<g id="edge2" class="edge">
<title>Node1&#45;&gt;Node3</title>
<path fill="none" stroke="midnightblue" d="M96.29,-22.14C107.86,-20.46 120.24,-18.67 131.85,-16.98"/>
<polygon fill="midnightblue" stroke="midnightblue" points="132.41,-20.44 141.8,-15.54 131.4,-13.51 132.41,-20.44"/>
</g>
</g>
</svg>
