<?xml version="1.0" encoding="UTF-8" standalone="no"?>
<!DOCTYPE svg PUBLIC "-//W3C//DTD SVG 1.1//EN"
 "http://www.w3.org/Graphics/SVG/1.1/DTD/svg11.dtd">
<!-- Generated by graphviz version 2.43.0 (0)
 -->
<!-- Title: saveItemDetailsToPath Pages: 1 -->
<svg width="545pt" height="66pt"
 viewBox="0.00 0.00 545.00 66.00" xmlns="http://www.w3.org/2000/svg" xmlns:xlink="http://www.w3.org/1999/xlink">
<g id="graph0" class="graph" transform="scale(1 1) rotate(0) translate(4 62)">
<title>saveItemDetailsToPath</title>
<!-- Node1 -->
<g id="node1" class="node">
<title>Node1</title>
<g id="a_node1"><a xlink:title="For Testing purposes only.">
<polygon fill="#bfbfbf" stroke="black" points="0,-19.5 0,-38.5 128,-38.5 128,-19.5 0,-19.5"/>
<text text-anchor="middle" x="64" y="-26.5" font-family="Helvetica,sans-Serif" font-size="10.00">saveItemDetailsToPath</text>
</a>
</g>
</g>
<!-- Node2 -->
<g id="node2" class="node">
<title>Node2</title>
<g id="a_node2"><a xlink:href="p__and__p_8c.html#ab91715820c37e4a405f797137044a417" target="_top" xlink:title="A function that validates the data, opens the incomming file descriptor for writing and writes the da...">
<polygon fill="none" stroke="black" points="164,-19.5 164,-38.5 261,-38.5 261,-19.5 164,-19.5"/>
<text text-anchor="middle" x="212.5" y="-26.5" font-family="Helvetica,sans-Serif" font-size="10.00">saveItemDetails</text>
</a>
</g>
</g>
<!-- Node1&#45;&gt;Node2 -->
<g id="edge1" class="edge">
<title>Node1&#45;&gt;Node2</title>
<path fill="none" stroke="midnightblue" d="M128.4,-29C136.87,-29 145.52,-29 153.88,-29"/>
<polygon fill="midnightblue" stroke="midnightblue" points="153.9,-32.5 163.9,-29 153.9,-25.5 153.9,-32.5"/>
</g>
<!-- Node3 -->
<g id="node3" class="node">
<title>Node3</title>
<g id="a_node3"><a xlink:href="p__and__p_8c.html#a016e2cb079f819b59593d79aeed8b024" target="_top" xlink:title="This function checks if an itemDetail srtuct is valid.">
<polygon fill="none" stroke="black" points="297,-19.5 297,-38.5 403,-38.5 403,-19.5 297,-19.5"/>
<text text-anchor="middle" x="350" y="-26.5" font-family="Helvetica,sans-Serif" font-size="10.00">isValidItemDetails</text>
</a>
</g>
</g>
<!-- Node2&#45;&gt;Node3 -->
<g id="edge2" class="edge">
<title>Node2&#45;&gt;Node3</title>
<path fill="none" stroke="midnightblue" d="M261.27,-29C269.4,-29 277.94,-29 286.38,-29"/>
<polygon fill="midnightblue" stroke="midnightblue" points="286.59,-32.5 296.59,-29 286.59,-25.5 286.59,-32.5"/>
</g>
<!-- Node4 -->
<g id="node4" class="node">
<title>Node4</title>
<g id="a_node4"><a xlink:href="p__and__p_8c.html#a95b67b25c7e9f090f0a684d8c1660d20" target="_top" xlink:title="This function checks if a string is a valid multiword.">
<polygon fill="none" stroke="black" points="439,-38.5 439,-57.5 537,-57.5 537,-38.5 439,-38.5"/>
<text text-anchor="middle" x="488" y="-45.5" font-family="Helvetica,sans-Serif" font-size="10.00">isValidMultiword</text>
</a>
</g>
</g>
<!-- Node3&#45;&gt;Node4 -->
<g id="edge3" class="edge">
<title>Node3&#45;&gt;Node4</title>
<path fill="none" stroke="midnightblue" d="M403.19,-36.29C411.5,-37.45 420.14,-38.66 428.58,-39.84"/>
<polygon fill="midnightblue" stroke="midnightblue" points="428.35,-43.34 438.74,-41.26 429.32,-36.41 428.35,-43.34"/>
</g>
<!-- Node5 -->
<g id="node5" class="node">
<title>Node5</title>
<g id="a_node5"><a xlink:href="p__and__p_8c.html#abadf6a620876f0fd2a396c1dc922eba3" target="_top" xlink:title="This function checks if a string is a valid name.">
<polygon fill="none" stroke="black" points="449,-0.5 449,-19.5 527,-19.5 527,-0.5 449,-0.5"/>
<text text-anchor="middle" x="488" y="-7.5" font-family="Helvetica,sans-Serif" font-size="10.00">isValidName</text>
</a>
</g>
</g>
<!-- Node3&#45;&gt;Node5 -->
<g id="edge4" class="edge">
<title>Node3&#45;&gt;Node5</title>
<path fill="none" stroke="midnightblue" d="M403.19,-21.71C414.78,-20.09 427.01,-18.38 438.44,-16.78"/>
<polygon fill="midnightblue" stroke="midnightblue" points="439.26,-20.2 448.68,-15.35 438.29,-13.27 439.26,-20.2"/>
</g>
</g>
</svg>
