<?xml version="1.0" encoding="UTF-8" standalone="no"?>
<!DOCTYPE svg PUBLIC "-//W3C//DTD SVG 1.1//EN"
 "http://www.w3.org/Graphics/SVG/1.1/DTD/svg11.dtd">
<!-- Generated by graphviz version 2.43.0 (0)
 -->
<!-- Title: isValidItemDetails Pages: 1 -->
<svg width="248pt" height="66pt"
 viewBox="0.00 0.00 248.00 66.00" xmlns="http://www.w3.org/2000/svg" xmlns:xlink="http://www.w3.org/1999/xlink">
<g id="graph0" class="graph" transform="scale(1 1) rotate(0) translate(4 62)">
<title>isValidItemDetails</title>
<!-- Node1 -->
<g id="node1" class="node">
<title>Node1</title>
<g id="a_node1"><a xlink:title="This function checks if an itemDetail srtuct is valid.">
<polygon fill="#bfbfbf" stroke="black" points="0,-19.5 0,-38.5 106,-38.5 106,-19.5 0,-19.5"/>
<text text-anchor="middle" x="53" y="-26.5" font-family="Helvetica,sans-Serif" font-size="10.00">isValidItemDetails</text>
</a>
</g>
</g>
<!-- Node2 -->
<g id="node2" class="node">
<title>Node2</title>
<g id="a_node2"><a xlink:href="p__and__p_8c.html#a95b67b25c7e9f090f0a684d8c1660d20" target="_top" xlink:title="This function checks if a string is a valid multiword.">
<polygon fill="none" stroke="black" points="142,-38.5 142,-57.5 240,-57.5 240,-38.5 142,-38.5"/>
<text text-anchor="middle" x="191" y="-45.5" font-family="Helvetica,sans-Serif" font-size="10.00">isValidMultiword</text>
</a>
</g>
</g>
<!-- Node1&#45;&gt;Node2 -->
<g id="edge1" class="edge">
<title>Node1&#45;&gt;Node2</title>
<path fill="none" stroke="midnightblue" d="M106.19,-36.29C114.5,-37.45 123.14,-38.66 131.58,-39.84"/>
<polygon fill="midnightblue" stroke="midnightblue" points="131.35,-43.34 141.74,-41.26 132.32,-36.41 131.35,-43.34"/>
</g>
<!-- Node3 -->
<g id="node3" class="node">
<title>Node3</title>
<g id="a_node3"><a xlink:href="p__and__p_8c.html#abadf6a620876f0fd2a396c1dc922eba3" target="_top" xlink:title="This function checks if a string is a valid name.">
<polygon fill="none" stroke="black" points="152,-0.5 152,-19.5 230,-19.5 230,-0.5 152,-0.5"/>
<text text-anchor="middle" x="191" y="-7.5" font-family="Helvetica,sans-Serif" font-size="10.00">isValidName</text>
</a>
</g>
</g>
<!-- Node1&#45;&gt;Node3 -->
<g id="edge2" class="edge">
<title>Node1&#45;&gt;Node3</title>
<path fill="none" stroke="midnightblue" d="M106.19,-21.71C117.78,-20.09 130.01,-18.38 141.44,-16.78"/>
<polygon fill="midnightblue" stroke="midnightblue" points="142.26,-20.2 151.68,-15.35 141.29,-13.27 142.26,-20.2"/>
</g>
</g>
</svg>
