<?xml version="1.0" encoding="UTF-8" standalone="no"?>
<!DOCTYPE svg PUBLIC "-//W3C//DTD SVG 1.1//EN"
 "http://www.w3.org/Graphics/SVG/1.1/DTD/svg11.dtd">
<!-- Generated by graphviz version 2.43.0 (0)
 -->
<!-- Title: saveItemDetails Pages: 1 -->
<svg width="381pt" height="66pt"
 viewBox="0.00 0.00 381.00 66.00" xmlns="http://www.w3.org/2000/svg" xmlns:xlink="http://www.w3.org/1999/xlink">
<g id="graph0" class="graph" transform="scale(1 1) rotate(0) translate(4 62)">
<title>saveItemDetails</title>
<!-- Node1 -->
<g id="node1" class="node">
<title>Node1</title>
<g id="a_node1"><a xlink:title="A function that validates the data, opens the incomming file descriptor for writing and writes the da...">
<polygon fill="#bfbfbf" stroke="black" points="0,-19.5 0,-38.5 97,-38.5 97,-19.5 0,-19.5"/>
<text text-anchor="middle" x="48.5" y="-26.5" font-family="Helvetica,sans-Serif" font-size="10.00">saveItemDetails</text>
</a>
</g>
</g>
<!-- Node2 -->
<g id="node2" class="node">
<title>Node2</title>
<g id="a_node2"><a xlink:href="p__and__p_8c.html#a016e2cb079f819b59593d79aeed8b024" target="_top" xlink:title="This function checks if an itemDetail srtuct is valid.">
<polygon fill="none" stroke="black" points="133,-19.5 133,-38.5 239,-38.5 239,-19.5 133,-19.5"/>
<text text-anchor="middle" x="186" y="-26.5" font-family="Helvetica,sans-Serif" font-size="10.00">isValidItemDetails</text>
</a>
</g>
</g>
<!-- Node1&#45;&gt;Node2 -->
<g id="edge1" class="edge">
<title>Node1&#45;&gt;Node2</title>
<path fill="none" stroke="midnightblue" d="M97.27,-29C105.4,-29 113.94,-29 122.38,-29"/>
<polygon fill="midnightblue" stroke="midnightblue" points="122.59,-32.5 132.59,-29 122.59,-25.5 122.59,-32.5"/>
</g>
<!-- Node3 -->
<g id="node3" class="node">
<title>Node3</title>
<g id="a_node3"><a xlink:href="p__and__p_8c.html#a95b67b25c7e9f090f0a684d8c1660d20" target="_top" xlink:title="This function checks if a string is a valid multiword.">
<polygon fill="none" stroke="black" points="275,-38.5 275,-57.5 373,-57.5 373,-38.5 275,-38.5"/>
<text text-anchor="middle" x="324" y="-45.5" font-family="Helvetica,sans-Serif" font-size="10.00">isValidMultiword</text>
</a>
</g>
</g>
<!-- Node2&#45;&gt;Node3 -->
<g id="edge2" class="edge">
<title>Node2&#45;&gt;Node3</title>
<path fill="none" stroke="midnightblue" d="M239.19,-36.29C247.5,-37.45 256.14,-38.66 264.58,-39.84"/>
<polygon fill="midnightblue" stroke="midnightblue" points="264.35,-43.34 274.74,-41.26 265.32,-36.41 264.35,-43.34"/>
</g>
<!-- Node4 -->
<g id="node4" class="node">
<title>Node4</title>
<g id="a_node4"><a xlink:href="p__and__p_8c.html#abadf6a620876f0fd2a396c1dc922eba3" target="_top" xlink:title="This function checks if a string is a valid name.">
<polygon fill="none" stroke="black" points="285,-0.5 285,-19.5 363,-19.5 363,-0.5 285,-0.5"/>
<text text-anchor="middle" x="324" y="-7.5" font-family="Helvetica,sans-Serif" font-size="10.00">isValidName</text>
</a>
</g>
</g>
<!-- Node2&#45;&gt;Node4 -->
<g id="edge3" class="edge">
<title>Node2&#45;&gt;Node4</title>
<path fill="none" stroke="midnightblue" d="M239.19,-21.71C250.78,-20.09 263.01,-18.38 274.44,-16.78"/>
<polygon fill="midnightblue" stroke="midnightblue" points="275.26,-20.2 284.68,-15.35 274.29,-13.27 275.26,-20.2"/>
</g>
</g>
</svg>
