<?xml version="1.0" encoding="UTF-8" standalone="no"?>
<!DOCTYPE svg PUBLIC "-//W3C//DTD SVG 1.1//EN"
 "http://www.w3.org/Graphics/SVG/1.1/DTD/svg11.dtd">
<!-- Generated by graphviz version 2.43.0 (0)
 -->
<!-- Title: secureLoad Pages: 1 -->
<svg width="487pt" height="85pt"
 viewBox="0.00 0.00 487.00 85.00" xmlns="http://www.w3.org/2000/svg" xmlns:xlink="http://www.w3.org/1999/xlink">
<g id="graph0" class="graph" transform="scale(1 1) rotate(0) translate(4 81)">
<title>secureLoad</title>
<!-- Node1 -->
<g id="node1" class="node">
<title>Node1</title>
<g id="a_node1"><a xlink:title="This function attempt to acquire appropriate permissions for opening the ItemDetails database and loa...">
<polygon fill="#bfbfbf" stroke="black" points="0,-19.5 0,-38.5 72,-38.5 72,-19.5 0,-19.5"/>
<text text-anchor="middle" x="36" y="-26.5" font-family="Helvetica,sans-Serif" font-size="10.00">secureLoad</text>
</a>
</g>
</g>
<!-- Node2 -->
<g id="node2" class="node">
<title>Node2</title>
<g id="a_node2"><a xlink:href="p__and__p_8c.html#ad7ff273f3ae7b323a2325e57bc55165f" target="_top" xlink:title="This function reads ItemDetails from a file descriptor, validates the data and stores it in the provi...">
<polygon fill="none" stroke="black" points="108,-38.5 108,-57.5 203,-57.5 203,-38.5 108,-38.5"/>
<text text-anchor="middle" x="155.5" y="-45.5" font-family="Helvetica,sans-Serif" font-size="10.00">loadItemDetails</text>
</a>
</g>
</g>
<!-- Node1&#45;&gt;Node2 -->
<g id="edge1" class="edge">
<title>Node1&#45;&gt;Node2</title>
<path fill="none" stroke="midnightblue" d="M72.25,-34.7C80.32,-36 89.09,-37.42 97.8,-38.83"/>
<polygon fill="midnightblue" stroke="midnightblue" points="97.53,-42.33 107.96,-40.47 98.65,-35.42 97.53,-42.33"/>
</g>
<!-- Node6 -->
<g id="node6" class="node">
<title>Node6</title>
<g id="a_node6"><a xlink:href="p__and__p_8c.html#a1eaab20527c20e574a714be763e26eb6" target="_top" xlink:title=" ">
<polygon fill="none" stroke="black" points="122,-0.5 122,-19.5 189,-19.5 189,-0.5 122,-0.5"/>
<text text-anchor="middle" x="155.5" y="-7.5" font-family="Helvetica,sans-Serif" font-size="10.00">playGame</text>
</a>
</g>
</g>
<!-- Node1&#45;&gt;Node6 -->
<g id="edge5" class="edge">
<title>Node1&#45;&gt;Node6</title>
<path fill="none" stroke="midnightblue" d="M72.25,-23.3C84.63,-21.3 98.67,-19.03 111.6,-16.94"/>
<polygon fill="midnightblue" stroke="midnightblue" points="112.37,-20.36 121.68,-15.31 111.25,-13.45 112.37,-20.36"/>
</g>
<!-- Node3 -->
<g id="node3" class="node">
<title>Node3</title>
<g id="a_node3"><a xlink:href="p__and__p_8c.html#a016e2cb079f819b59593d79aeed8b024" target="_top" xlink:title="This function checks if an itemDetail srtuct is valid.">
<polygon fill="none" stroke="black" points="239,-38.5 239,-57.5 345,-57.5 345,-38.5 239,-38.5"/>
<text text-anchor="middle" x="292" y="-45.5" font-family="Helvetica,sans-Serif" font-size="10.00">isValidItemDetails</text>
</a>
</g>
</g>
<!-- Node2&#45;&gt;Node3 -->
<g id="edge2" class="edge">
<title>Node2&#45;&gt;Node3</title>
<path fill="none" stroke="midnightblue" d="M203.16,-48C211.45,-48 220.2,-48 228.84,-48"/>
<polygon fill="midnightblue" stroke="midnightblue" points="228.9,-51.5 238.9,-48 228.9,-44.5 228.9,-51.5"/>
</g>
<!-- Node4 -->
<g id="node4" class="node">
<title>Node4</title>
<g id="a_node4"><a xlink:href="p__and__p_8c.html#a95b67b25c7e9f090f0a684d8c1660d20" target="_top" xlink:title="This function checks if a string is a valid multiword.">
<polygon fill="none" stroke="black" points="381,-57.5 381,-76.5 479,-76.5 479,-57.5 381,-57.5"/>
<text text-anchor="middle" x="430" y="-64.5" font-family="Helvetica,sans-Serif" font-size="10.00">isValidMultiword</text>
</a>
</g>
</g>
<!-- Node3&#45;&gt;Node4 -->
<g id="edge3" class="edge">
<title>Node3&#45;&gt;Node4</title>
<path fill="none" stroke="midnightblue" d="M345.19,-55.29C353.5,-56.45 362.14,-57.66 370.58,-58.84"/>
<polygon fill="midnightblue" stroke="midnightblue" points="370.35,-62.34 380.74,-60.26 371.32,-55.41 370.35,-62.34"/>
</g>
<!-- Node5 -->
<g id="node5" class="node">
<title>Node5</title>
<g id="a_node5"><a xlink:href="p__and__p_8c.html#abadf6a620876f0fd2a396c1dc922eba3" target="_top" xlink:title="This function checks if a string is a valid name.">
<polygon fill="none" stroke="black" points="391,-19.5 391,-38.5 469,-38.5 469,-19.5 391,-19.5"/>
<text text-anchor="middle" x="430" y="-26.5" font-family="Helvetica,sans-Serif" font-size="10.00">isValidName</text>
</a>
</g>
</g>
<!-- Node3&#45;&gt;Node5 -->
<g id="edge4" class="edge">
<title>Node3&#45;&gt;Node5</title>
<path fill="none" stroke="midnightblue" d="M345.19,-40.71C356.78,-39.09 369.01,-37.38 380.44,-35.78"/>
<polygon fill="midnightblue" stroke="midnightblue" points="381.26,-39.2 390.68,-34.35 380.29,-32.27 381.26,-39.2"/>
</g>
</g>
</svg>
