<?xml version="1.0" encoding="UTF-8" standalone="no"?>
<!DOCTYPE svg PUBLIC "-//W3C//DTD SVG 1.1//EN"
 "http://www.w3.org/Graphics/SVG/1.1/DTD/svg11.dtd">
<!-- Generated by graphviz version 2.43.0 (0)
 -->
<!-- Title: ItemDetails Pages: 1 -->
<svg width="120pt" height="106pt"
 viewBox="0.00 0.00 120.00 106.00" xmlns="http://www.w3.org/2000/svg" xmlns:xlink="http://www.w3.org/1999/xlink">
<g id="graph0" class="graph" transform="scale(1 1) rotate(0) translate(4 102)">
<title>ItemDetails</title>
<!-- Node1 -->
<g id="node1" class="node">
<title>Node1</title>
<g id="a_node1"><a xlink:title="Stores the name and description for some item type that can be carried by player characters as part o...">
<polygon fill="#bfbfbf" stroke="black" points="23,-0.5 23,-19.5 97,-19.5 97,-0.5 23,-0.5"/>
<text text-anchor="middle" x="60" y="-7.5" font-family="Helvetica,sans-Serif" font-size="10.00">ItemDetails</text>
</a>
</g>
</g>
<!-- Node2 -->
<g id="node2" class="node">
<title>Node2</title>
<g id="a_node2"><a xlink:title=" ">
<polygon fill="none" stroke="#bfbfbf" points="0,-78.5 0,-97.5 56,-97.5 56,-78.5 0,-78.5"/>
<text text-anchor="middle" x="28" y="-85.5" font-family="Helvetica,sans-Serif" font-size="10.00">uint64_t</text>
</a>
</g>
</g>
<!-- Node2&#45;&gt;Node1 -->
<g id="edge1" class="edge">
<title>Node2&#45;&gt;Node1</title>
<path fill="none" stroke="#9a32cd" stroke-dasharray="5,2" d="M27.55,-67.94C28,-58.53 29.6,-47.24 34,-38 37.41,-30.83 43.48,-24.36 48.89,-19.56"/>
<polygon fill="#9a32cd" stroke="#9a32cd" points="24.04,-68.19 27.45,-78.22 31.04,-68.25 24.04,-68.19"/>
<text text-anchor="middle" x="52.5" y="-46.5" font-family="Helvetica,sans-Serif" font-size="10.00"> itemID</text>
</g>
<!-- Node3 -->
<g id="node3" class="node">
<title>Node3</title>
<g id="a_node3"><a xlink:title=" ">
<polygon fill="none" stroke="#bfbfbf" points="74,-78.5 74,-97.5 112,-97.5 112,-78.5 74,-78.5"/>
<text text-anchor="middle" x="93" y="-85.5" font-family="Helvetica,sans-Serif" font-size="10.00">char</text>
</a>
</g>
</g>
<!-- Node3&#45;&gt;Node1 -->
<g id="edge2" class="edge">
<title>Node3&#45;&gt;Node1</title>
<path fill="none" stroke="#9a32cd" stroke-dasharray="5,2" d="M85.04,-68.67C78.29,-53.11 68.89,-31.47 63.74,-19.62"/>
<polygon fill="#9a32cd" stroke="#9a32cd" points="82.02,-70.5 89.21,-78.28 88.44,-67.72 82.02,-70.5"/>
<text text-anchor="middle" x="94" y="-52" font-family="Helvetica,sans-Serif" font-size="10.00"> desc</text>
<text text-anchor="middle" x="94" y="-41" font-family="Helvetica,sans-Serif" font-size="10.00">name</text>
</g>
</g>
</svg>
