<?xml version="1.0" encoding="UTF-8" standalone="no"?>
<!DOCTYPE svg PUBLIC "-//W3C//DTD SVG 1.1//EN"
 "http://www.w3.org/Graphics/SVG/1.1/DTD/svg11.dtd">
<!-- Generated by graphviz version 2.43.0 (0)
 -->
<!-- Title: Character Pages: 1 -->
<svg width="486pt" height="173pt"
 viewBox="0.00 0.00 486.01 173.00" xmlns="http://www.w3.org/2000/svg" xmlns:xlink="http://www.w3.org/1999/xlink">
<g id="graph0" class="graph" transform="scale(1 1) rotate(0) translate(4 169)">
<title>Character</title>
<!-- Node1 -->
<g id="node1" class="node">
<title>Node1</title>
<g id="a_node1"><a xlink:title="Records the base details of a player character.">
<polygon fill="#bfbfbf" stroke="black" points="152.01,-0.5 152.01,-19.5 216.01,-19.5 216.01,-0.5 152.01,-0.5"/>
<text text-anchor="middle" x="184.01" y="-7.5" font-family="Helvetica,sans-Serif" font-size="10.00">Character</text>
</a>
</g>
</g>
<!-- Node2 -->
<g id="node2" class="node">
<title>Node2</title>
<g id="a_node2"><a xlink:href="p__and__p_8h.html#structItemCarried" target="_top" xlink:title="Used to record how many items of one particular type are carried by a player character.">
<polygon fill="none" stroke="black" points="74.01,-78.5 74.01,-97.5 148.01,-97.5 148.01,-78.5 74.01,-78.5"/>
<text text-anchor="middle" x="111.01" y="-85.5" font-family="Helvetica,sans-Serif" font-size="10.00">ItemCarried</text>
</a>
</g>
</g>
<!-- Node2&#45;&gt;Node1 -->
<g id="edge1" class="edge">
<title>Node2&#45;&gt;Node1</title>
<path fill="none" stroke="#9a32cd" stroke-dasharray="5,2" d="M110.35,-68.25C110.93,-58.3 113.24,-46.43 120.01,-38 127.93,-28.13 140.13,-21.81 151.75,-17.79"/>
<polygon fill="#9a32cd" stroke="#9a32cd" points="106.85,-68.36 110.27,-78.38 113.85,-68.41 106.85,-68.36"/>
<text text-anchor="middle" x="145.01" y="-46.5" font-family="Helvetica,sans-Serif" font-size="10.00"> inventory</text>
</g>
<!-- Node3 -->
<g id="node3" class="node">
<title>Node3</title>
<g id="a_node3"><a xlink:title=" ">
<polygon fill="none" stroke="#bfbfbf" points="8.01,-145.5 8.01,-164.5 64.01,-164.5 64.01,-145.5 8.01,-145.5"/>
<text text-anchor="middle" x="36.01" y="-152.5" font-family="Helvetica,sans-Serif" font-size="10.00">uint64_t</text>
</a>
</g>
</g>
<!-- Node3&#45;&gt;Node1 -->
<g id="edge4" class="edge">
<title>Node3&#45;&gt;Node1</title>
<path fill="none" stroke="#9a32cd" stroke-dasharray="5,2" d="M20.79,-137.92C7.48,-121.83 -7.88,-96.83 5.01,-78 37.9,-29.94 109.82,-16.29 151.8,-12.45"/>
<polygon fill="#9a32cd" stroke="#9a32cd" points="18.17,-140.24 27.4,-145.44 23.43,-135.62 18.17,-140.24"/>
<text text-anchor="middle" x="35.01" y="-85.5" font-family="Helvetica,sans-Serif" font-size="10.00"> characterID</text>
</g>
<!-- Node3&#45;&gt;Node2 -->
<g id="edge2" class="edge">
<title>Node3&#45;&gt;Node2</title>
<path fill="none" stroke="#9a32cd" stroke-dasharray="5,2" d="M52.78,-138.48C60.4,-131.51 69.58,-123.25 78.01,-116 85.3,-109.72 93.7,-102.86 100.19,-97.62"/>
<polygon fill="#9a32cd" stroke="#9a32cd" points="50.22,-136.07 45.23,-145.41 54.96,-141.22 50.22,-136.07"/>
<text text-anchor="middle" x="96.51" y="-119" font-family="Helvetica,sans-Serif" font-size="10.00"> itemID</text>
</g>
<!-- Node4 -->
<g id="node4" class="node">
<title>Node4</title>
<g id="a_node4"><a xlink:title=" ">
<polygon fill="none" stroke="#bfbfbf" points="105.51,-145.5 105.51,-164.5 150.51,-164.5 150.51,-145.5 105.51,-145.5"/>
<text text-anchor="middle" x="128.01" y="-152.5" font-family="Helvetica,sans-Serif" font-size="10.00">size_t</text>
</a>
</g>
</g>
<!-- Node4&#45;&gt;Node1 -->
<g id="edge7" class="edge">
<title>Node4&#45;&gt;Node1</title>
<path fill="none" stroke="#9a32cd" stroke-dasharray="5,2" d="M156.38,-140.04C161.29,-136.43 165.82,-132.09 169.01,-127 190.74,-92.21 187.52,-40.1 185.19,-19.66"/>
<polygon fill="#9a32cd" stroke="#9a32cd" points="154.49,-137.09 147.95,-145.43 158.26,-142.99 154.49,-137.09"/>
<text text-anchor="middle" x="220.01" y="-85.5" font-family="Helvetica,sans-Serif" font-size="10.00"> inventorySize</text>
</g>
<!-- Node4&#45;&gt;Node2 -->
<g id="edge3" class="edge">
<title>Node4&#45;&gt;Node2</title>
<path fill="none" stroke="#9a32cd" stroke-dasharray="5,2" d="M123.15,-135.41C119.9,-122.99 115.77,-107.22 113.26,-97.63"/>
<polygon fill="#9a32cd" stroke="#9a32cd" points="119.8,-136.44 125.71,-145.23 126.57,-134.67 119.8,-136.44"/>
<text text-anchor="middle" x="143.01" y="-119" font-family="Helvetica,sans-Serif" font-size="10.00"> quantity</text>
</g>
<!-- Node5 -->
<g id="node5" class="node">
<title>Node5</title>
<g id="a_node5"><a xlink:title=" ">
<polygon fill="none" stroke="#bfbfbf" points="272.01,-78.5 272.01,-97.5 310.01,-97.5 310.01,-78.5 272.01,-78.5"/>
<text text-anchor="middle" x="291.01" y="-85.5" font-family="Helvetica,sans-Serif" font-size="10.00">char</text>
</a>
</g>
</g>
<!-- Node5&#45;&gt;Node1 -->
<g id="edge5" class="edge">
<title>Node5&#45;&gt;Node1</title>
<path fill="none" stroke="#9a32cd" stroke-dasharray="5,2" d="M270.39,-72.36C248.37,-56.72 214.19,-32.44 196.14,-19.62"/>
<polygon fill="#9a32cd" stroke="#9a32cd" points="268.55,-75.34 278.73,-78.28 272.61,-69.64 268.55,-75.34"/>
<text text-anchor="middle" x="276.01" y="-52" font-family="Helvetica,sans-Serif" font-size="10.00"> name</text>
<text text-anchor="middle" x="276.01" y="-41" font-family="Helvetica,sans-Serif" font-size="10.00">profession</text>
</g>
<!-- Node6 -->
<g id="node6" class="node">
<title>Node6</title>
<g id="a_node6"><a xlink:title=" ">
<polygon fill="none" stroke="#bfbfbf" points="328.01,-78.5 328.01,-97.5 478.01,-97.5 478.01,-78.5 328.01,-78.5"/>
<text text-anchor="middle" x="403.01" y="-85.5" font-family="Helvetica,sans-Serif" font-size="10.00">enum CharacterSocialClass</text>
</a>
</g>
</g>
<!-- Node6&#45;&gt;Node1 -->
<g id="edge6" class="edge">
<title>Node6&#45;&gt;Node1</title>
<path fill="none" stroke="#9a32cd" stroke-dasharray="5,2" d="M379.82,-73.21C360.61,-62.3 332.3,-47.38 306.01,-38 276.38,-27.43 241.18,-20.17 216.22,-15.86"/>
<polygon fill="#9a32cd" stroke="#9a32cd" points="378.31,-76.38 388.72,-78.35 381.81,-70.31 378.31,-76.38"/>
<text text-anchor="middle" x="383.01" y="-46.5" font-family="Helvetica,sans-Serif" font-size="10.00"> socialClass</text>
</g>
</g>
</svg>
